<svg width="142" height="164" viewBox="0 0 142 164" fill="none" xmlns="http://www.w3.org/2000/svg">
<circle cx="5" cy="5" r="5" fill="#F2050E"/>
<circle cx="5" cy="27" r="5" fill="#F2050E"/>
<circle cx="5" cy="49" r="5" fill="#F2050E"/>
<circle cx="5" cy="71" r="5" fill="#F2050E"/>
<circle cx="5" cy="93" r="5" fill="#F2050E"/>
<circle cx="5" cy="115" r="5" fill="#F2050E"/>
<circle cx="5" cy="137" r="5" fill="#F2050E"/>
<circle cx="5" cy="159" r="5" fill="#F2050E"/>
<circle cx="27" cy="5" r="5" fill="#F2050E"/>
<circle cx="27" cy="27" r="5" fill="#F2050E"/>
<circle cx="27" cy="49" r="5" fill="#F2050E"/>
<circle cx="27" cy="71" r="5" fill="#F2050E"/>
<circle cx="27" cy="93" r="5" fill="#F2050E"/>
<circle cx="27" cy="115" r="5" fill="#F2050E"/>
<circle cx="27" cy="137" r="5" fill="#F2050E"/>
<circle cx="27" cy="159" r="5" fill="#F2050E"/>
<circle cx="49" cy="5" r="5" fill="#F2050E"/>
<circle cx="49" cy="27" r="5" fill="#F2050E"/>
<circle cx="49" cy="49" r="5" fill="#F2050E"/>
<circle cx="49" cy="71" r="5" fill="#F2050E"/>
<circle cx="49" cy="93" r="5" fill="#F2050E"/>
<circle cx="49" cy="115" r="5" fill="#F2050E"/>
<circle cx="49" cy="137" r="5" fill="#F2050E"/>
<circle cx="49" cy="159" r="5" fill="#F2050E"/>
<circle cx="71" cy="5" r="5" fill="#F2050E"/>
<circle cx="71" cy="27" r="5" fill="#F2050E"/>
<circle cx="71" cy="49" r="5" fill="#F2050E"/>
<circle cx="71" cy="71" r="5" fill="#F2050E"/>
<circle cx="71" cy="93" r="5" fill="#F2050E"/>
<circle cx="71" cy="115" r="5" fill="#F2050E"/>
<circle cx="71" cy="137" r="5" fill="#F2050E"/>
<circle cx="71" cy="159" r="5" fill="#F2050E"/>
<circle cx="93" cy="5" r="5" fill="#F2050E"/>
<circle cx="93" cy="27" r="5" fill="#F2050E"/>
<circle cx="93" cy="49" r="5" fill="#F2050E"/>
<circle cx="93" cy="71" r="5" fill="#F2050E"/>
<circle cx="93" cy="93" r="5" fill="#F2050E"/>
<circle cx="93" cy="115" r="5" fill="#F2050E"/>
<circle cx="93" cy="137" r="5" fill="#F2050E"/>
<circle cx="93" cy="159" r="5" fill="#F2050E"/>
<circle cx="115" cy="5" r="5" fill="#F2050E"/>
<circle cx="115" cy="27" r="5" fill="#F2050E"/>
<circle cx="115" cy="49" r="5" fill="#F2050E"/>
<circle cx="115" cy="71" r="5" fill="#F2050E"/>
<circle cx="115" cy="93" r="5" fill="#F2050E"/>
<circle cx="115" cy="115" r="5" fill="#F2050E"/>
<circle cx="115" cy="137" r="5" fill="#F2050E"/>
<circle cx="115" cy="159" r="5" fill="#F2050E"/>
<circle cx="137" cy="27" r="5" fill="#F2050E"/>
<circle cx="137" cy="49" r="5" fill="#F2050E"/>
<circle cx="137" cy="71" r="5" fill="#F2050E"/>
<circle cx="137" cy="93" r="5" fill="#F2050E"/>
<circle cx="137" cy="115" r="5" fill="#F2050E"/>
<circle cx="137" cy="137" r="5" fill="#F2050E"/>
</svg>
