<svg width="0" height="0" class="hidden">
  <symbol fill="none" xmlns="http://www.w3.org/2000/svg" viewBox="0 0 71 59" id="icon-twitter">
    <path id="icon-twitter" d="M71 0.0330638C67.9095 2.25408 64.4877 3.9528 60.8664 5.0638C58.9227 2.78685 56.3396 1.17301 53.4663 0.440541C50.5931 -0.291927 47.5684 -0.10768 44.8013 0.968365C42.0341 2.04441 39.6582 3.96033 37.9946 6.45701C36.3311 8.95369 35.4603 11.9107 35.5 14.928V18.2161C29.8285 18.3659 24.2087 17.0844 19.141 14.4856C14.0733 11.8868 9.71511 8.05146 6.45455 3.32113C6.45455 3.32113 -6.45455 32.9137 22.5909 46.066C15.9444 50.6626 8.02673 52.9674 0 52.6421C29.0455 69.0824 64.5455 52.6421 64.5455 14.8294C64.5425 13.9135 64.4561 12.9999 64.2873 12.1003C67.581 8.7908 69.9054 4.61239 71 0.0330638V0.0330638Z" fill="currentcolor"></path>
  </symbol>
  <symbol fill="none" xmlns="http://www.w3.org/2000/svg" viewBox="0 0 35 65" id="icon-facebook">
    <path id="icon-facebook" d="M35 0H25.4545C21.2352 0 17.1887 1.71205 14.2051 4.75951C11.2216 7.80698 9.54545 11.9402 9.54545 16.25V26H0V39H9.54545V65H22.2727V39H31.8182L35 26H22.2727V16.25C22.2727 15.388 22.608 14.5614 23.2047 13.9519C23.8014 13.3424 24.6107 13 25.4545 13H35V0Z" fill="currentcolor"></path>
  </symbol>
  <symbol fill="none" xmlns="http://www.w3.org/2000/svg" viewBox="0 0 71 50" id="icon-youtube">
    <path id="icon-youtube" fill-rule="evenodd" clip-rule="evenodd" d="M67.2504 3.7497C68.3496 4.88542 69.1303 6.29175 69.5137 7.82665C70.5374 13.5145 71.0344 19.2851 70.9982 25.0647C71.0186 30.7579 70.5217 36.4411 69.5137 42.044C69.1303 43.5789 68.3496 44.9852 67.2504 46.1209C66.1511 47.2567 64.7723 48.0816 63.2531 48.5123C57.7025 50 35.5 50 35.5 50C35.5 50 13.2975 50 7.7469 48.5123C6.25862 48.1042 4.90053 47.3183 3.80384 46.2305C2.70715 45.1428 1.90893 43.7899 1.48631 42.3027C0.462571 36.6148 -0.0343656 30.8443 0.00184476 25.0647C-0.0264378 19.3283 0.470467 13.6014 1.48631 7.95602C1.86966 6.42112 2.65038 5.01479 3.74963 3.87906C4.84888 2.74334 6.22773 1.91845 7.7469 1.48771C13.2975 0 35.5 0 35.5 0C35.5 0 57.7025 0 63.2531 1.35834C64.7723 1.78908 66.1511 2.61397 67.2504 3.7497ZM46.5559 24.5757L28 35.1514V14L46.5559 24.5757Z" fill="currentcolor"></path>
  </symbol>
  <symbol fill="none" xmlns="http://www.w3.org/2000/svg" viewBox="0 0 59 59" id="icon-instagram">
    <path id="icon-instagram" d="M29.4921 19.6625C24.0753 19.6625 19.6547 24.0831 19.6547 29.5C19.6547 34.9169 24.0753 39.3375 29.4921 39.3375C34.9089 39.3375 39.3294 34.9169 39.3294 29.5C39.3294 24.0831 34.9089 19.6625 29.4921 19.6625ZM58.9967 29.5C58.9967 25.4262 59.0336 21.3894 58.8048 17.323C58.5761 12.5998 57.4986 8.408 54.0448 4.95417C50.5837 1.49295 46.3993 0.422854 41.6762 0.194075C37.6025 -0.0347049 33.5657 0.00219513 29.4994 0.00219513C25.4258 0.00219513 21.389 -0.0347049 17.3227 0.194075C12.5996 0.422854 8.40784 1.50033 4.95407 4.95417C1.49292 8.41538 0.422846 12.5998 0.194071 17.323C-0.0347043 21.3968 0.00219509 25.4336 0.00219509 29.5C0.00219509 33.5664 -0.0347043 37.6106 0.194071 41.677C0.422846 46.4002 1.5003 50.592 4.95407 54.0458C8.41522 57.507 12.5996 58.5771 17.3227 58.8059C21.3964 59.0347 25.4332 58.9978 29.4994 58.9978C33.5731 58.9978 37.6099 59.0347 41.6762 58.8059C46.3993 58.5771 50.5911 57.4997 54.0448 54.0458C57.506 50.5846 58.5761 46.4002 58.8048 41.677C59.041 37.6106 58.9967 33.5738 58.9967 29.5ZM29.4921 44.6363C21.1159 44.6363 14.356 37.8763 14.356 29.5C14.356 21.1237 21.1159 14.3636 29.4921 14.3636C37.8682 14.3636 44.6281 21.1237 44.6281 29.5C44.6281 37.8763 37.8682 44.6363 29.4921 44.6363ZM45.248 17.2787C43.2924 17.2787 41.7131 15.6994 41.7131 13.7437C41.7131 11.788 43.2924 10.2087 45.248 10.2087C47.2037 10.2087 48.783 11.788 48.783 13.7437C48.7836 14.2081 48.6925 14.6681 48.5151 15.0972C48.3377 15.5264 48.0773 15.9163 47.7489 16.2447C47.4206 16.573 47.0306 16.8334 46.6015 17.0108C46.1724 17.1883 45.7124 17.2793 45.248 17.2787Z" fill="currentcolor"></path>
  </symbol>
</svg>