<svg xmlns="http://www.w3.org/2000/svg"><symbol id="icon-facebook" viewBox="0 0 35 65"><path d="M35 0h-9.546c-4.219 0-8.265 1.712-11.249 4.76-2.983 3.047-4.66 7.18-4.66 11.49V26H0v13h9.545v26h12.728V39h9.545L35 26H22.273v-9.75c0-.862.335-1.689.932-2.298a3.148 3.148 0 0 1 2.25-.952H35V0z" fill="currentcolor"/></symbol><symbol id="icon-instagram" viewBox="0 0 59 59"><path d="M29.492 19.663c-5.417 0-9.837 4.42-9.837 9.837s4.42 9.837 9.837 9.837 9.837-4.42 9.837-9.837-4.42-9.837-9.837-9.837zM58.997 29.5c0-4.074.037-8.11-.192-12.177-.229-4.723-1.306-8.915-4.76-12.369C50.584 1.493 46.399.423 41.676.194 37.602-.035 33.566.002 29.5.002c-4.073 0-8.11-.037-12.176.192C12.6.423 8.408 1.5 4.954 4.954 1.493 8.415.423 12.6.194 17.323-.035 21.397.002 25.433.002 29.5c0 4.066-.037 8.11.192 12.177.229 4.723 1.306 8.915 4.76 12.369 3.461 3.461 7.646 4.531 12.369 4.76 4.073.229 8.11.192 12.176.192 4.074 0 8.11.037 12.177-.192 4.723-.229 8.915-1.306 12.369-4.76 3.461-3.461 4.531-7.646 4.76-12.369.236-4.066.192-8.103.192-12.177zM29.492 44.636A15.115 15.115 0 0 1 14.356 29.5c0-8.376 6.76-15.136 15.136-15.136s15.136 6.76 15.136 15.136-6.76 15.136-15.136 15.136zM45.248 17.28a3.53 3.53 0 0 1-3.535-3.535 3.53 3.53 0 0 1 3.535-3.535 3.53 3.53 0 0 1 3.535 3.535 3.531 3.531 0 0 1-3.535 3.535z" fill="currentcolor"/></symbol><symbol id="icon-twitter" viewBox="0 0 71 59"><path d="M71 .033a34.911 34.911 0 0 1-10.134 5.03 14.418 14.418 0 0 0-7.4-4.622 14.206 14.206 0 0 0-8.665.527 14.507 14.507 0 0 0-6.806 5.489 14.93 14.93 0 0 0-2.495 8.471v3.288a33.876 33.876 0 0 1-16.359-3.73A34.596 34.596 0 0 1 6.455 3.32S-6.455 32.914 22.59 46.066A37.055 37.055 0 0 1 0 52.642c29.046 16.44 64.546 0 64.546-37.813-.004-.915-.09-1.83-.259-2.729A25.509 25.509 0 0 0 71 .033z" fill="currentcolor"/></symbol><symbol id="icon-tiktok" viewBox="0 0 56 65"><path d="M44.429 10.183s1.821 1.806 0 0A15.547 15.547 0 0 1 40.643 0H29.607v44.778a9.408 9.408 0 0 1-2.822 6.402 9.204 9.204 0 0 1-6.428 2.626c-5.071 0-9.286-4.19-9.286-9.39 0-6.21 5.929-10.869 12.036-8.955V24.05C10.786 22.389 0 32.067 0 44.417 0 56.442 9.857 65 20.321 65c11.215 0 20.322-9.208 20.322-20.583V21.703A26.054 26.054 0 0 0 56 26.686V15.528s-6.714.325-11.571-5.345z" fill="currentcolor"/></symbol><symbol id="icon-youtube" viewBox="0 0 71 50"><path fill-rule="evenodd" d="M67.25 3.75a8.997 8.997 0 0 1 2.264 4.077 93.994 93.994 0 0 1 1.484 17.238 93.992 93.992 0 0 1-1.484 16.979 8.997 8.997 0 0 1-2.264 4.077 8.967 8.967 0 0 1-3.997 2.391C57.703 50 35.5 50 35.5 50s-22.203 0-27.753-1.488a8.966 8.966 0 0 1-3.943-2.282 8.995 8.995 0 0 1-2.318-3.927A93.99 93.99 0 0 1 .002 25.065 93.99 93.99 0 0 1 1.486 7.956 8.996 8.996 0 0 1 3.75 3.879a8.968 8.968 0 0 1 3.997-2.391C13.297 0 35.5 0 35.5 0s22.203 0 27.753 1.358A8.968 8.968 0 0 1 67.25 3.75zM46.556 24.576L28 35.15V14l18.556 10.576z" clip-rule="evenodd" fill="currentcolor"/></symbol></svg>