<svg xmlns="http://www.w3.org/2000/svg" width="59" height="59" fill="none" viewBox="0 0 59 59"><path fill="#000" d="M29.492 19.663c-5.417 0-9.837 4.42-9.837 9.837s4.42 9.837 9.837 9.837 9.837-4.42 9.837-9.837-4.42-9.837-9.837-9.837zM58.997 29.5c0-4.074.037-8.11-.192-12.177-.229-4.723-1.306-8.915-4.76-12.369C50.584 1.493 46.399.423 41.676.194 37.602-.035 33.566.002 29.5.002c-4.073 0-8.11-.037-12.176.192C12.6.423 8.408 1.5 4.954 4.954 1.493 8.415.423 12.6.194 17.323-.035 21.397.002 25.433.002 29.5c0 4.066-.037 8.11.192 12.177.229 4.723 1.306 8.915 4.76 12.369 3.461 3.461 7.646 4.531 12.369 4.76 4.073.229 8.11.192 12.176.192 4.074 0 8.11.037 12.177-.192 4.723-.229 8.915-1.306 12.369-4.76 3.461-3.461 4.531-7.646 4.76-12.369.236-4.066.192-8.103.192-12.177zM29.492 44.636A15.115 15.115 0 0 1 14.356 29.5c0-8.376 6.76-15.136 15.136-15.136s15.136 6.76 15.136 15.136-6.76 15.136-15.136 15.136zM45.248 17.28a3.53 3.53 0 0 1-3.535-3.535 3.53 3.53 0 0 1 3.535-3.535 3.53 3.53 0 0 1 3.535 3.535 3.531 3.531 0 0 1-3.535 3.535z"/></svg>