<svg xmlns="http://www.w3.org/2000/svg" width="71" height="59" fill="none" viewBox="0 0 71 59"><path fill="#000" d="M71 .033a34.911 34.911 0 0 1-10.134 5.03 14.418 14.418 0 0 0-7.4-4.622 14.206 14.206 0 0 0-8.665.527 14.507 14.507 0 0 0-6.806 5.489 14.93 14.93 0 0 0-2.495 8.471v3.288a33.876 33.876 0 0 1-16.359-3.73A34.596 34.596 0 0 1 6.455 3.32S-6.455 32.914 22.59 46.066A37.055 37.055 0 0 1 0 52.642c29.046 16.44 64.546 0 64.546-37.813-.004-.915-.09-1.83-.259-2.729A25.509 25.509 0 0 0 71 .033z"/></svg>