<svg xmlns="http://www.w3.org/2000/svg" width="71" height="50" fill="none" viewBox="0 0 71 50"><path fill="#000" fill-rule="evenodd" d="M67.25 3.75a8.997 8.997 0 0 1 2.264 4.077 93.994 93.994 0 0 1 1.484 17.238 93.992 93.992 0 0 1-1.484 16.979 8.997 8.997 0 0 1-2.264 4.077 8.967 8.967 0 0 1-3.997 2.391C57.703 50 35.5 50 35.5 50s-22.203 0-27.753-1.488a8.966 8.966 0 0 1-3.943-2.282 8.995 8.995 0 0 1-2.318-3.927A93.99 93.99 0 0 1 .002 25.065 93.99 93.99 0 0 1 1.486 7.956 8.996 8.996 0 0 1 3.75 3.879a8.968 8.968 0 0 1 3.997-2.391C13.297 0 35.5 0 35.5 0s22.203 0 27.753 1.358A8.968 8.968 0 0 1 67.25 3.75zM46.556 24.576L28 35.15V14l18.556 10.576z" clip-rule="evenodd"/></svg>